#!OML:ASF \\sashay\E\basketball\basketball\Project 1\Capture day 1\Session 1\Subject.ASF
:FULLY-SPECIFIED
:DEGREES
324
root -33.1331 15.4061 1.21323 -173.052 -38.0049 181.247
lowerback 22.7675 2.27891 -6.55296
upperback 7.93944 0.531182 1.26777
thorax -4.07257 -0.271825 5.01457
lowerneck 1.70301 -6.8722 -16.963
upperneck -28.1665 -7.65697 31.417
head -6.14449 -6.3645 14.9911
rclavicle 4.69132e-014 -5.22804e-014
rhumerus -21.5462 -12.0665 -85.8044
rradius 31.8198
rwrist 6.76299
rhand -22.4764 31.0028
rfingers 7.12502
rthumb 3.94869 1.05969
lclavicle 4.69132e-014 -5.22804e-014
lhumerus -18.3056 20.7062 91.1375
lradius 17.6083
lwrist -1.33128
lhand -15.9427 23.7767
lfingers 7.12502
lthumb 10.2555 53.5067
rfemur -38.6603 -21.1354 16.2825
rtibia 49.8299
rfoot -15.7479 -2.27546
rtoes -25.2843
lfemur -25.4693 20.7035 -18.192
ltibia 49.3661
lfoot -21.0659 1.63758
ltoes -22.1801
325
root -33.1294 15.4324 1.15018 -172.827 -37.9537 181.026
lowerback 22.5265 2.13234 -6.73159
upperback 7.86575 0.338227 1.26724
thorax -4.00526 -0.359935 5.16437
lowerneck 1.74337 -6.74407 -17.0593
upperneck -28.281 -7.50266 31.4067
head -6.22991 -6.29302 15.0473
rclavicle 3.93594e-014 -5.12864e-014
rhumerus -21.6666 -11.1667 -85.9987
rradius 31.7846
rwrist 6.74258
rhand -22.5441 30.794
rfingers 7.12502
rthumb 3.8834 0.849663
lclavicle 3.93594e-014 -5.12864e-014
lhumerus -18.48 19.0672 91.0035
lradius 17.3091
lwrist -1.74083
lhand -15.5592 23.6723
lfingers 7.12502
lthumb 10.6254 53.3837
rfemur -38.5854 -21.0209 16.6107
rtibia 49.3792
rfoot -15.0127 -2.17428
rtoes -16.8203
lfemur -24.8992 20.5408 -18.169
ltibia 48.5372
lfoot -20.947 1.74912
ltoes -22.343
326
root -33.1279 15.4539 1.08527 -172.529 -37.9333 180.613
lowerback 22.292 2.027 -6.83719
upperback 7.75787 0.21223 1.14608
thorax -3.98678 -0.40806 5.12253
lowerneck 2.04653 -6.69554 -17.029
upperneck -28.4799 -7.46087 31.3216
head -6.37502 -6.28787 15.0668
rclavicle 3.51849e-014 -5.62561e-014
rhumerus -21.9002 -10.7392 -86.1234
rradius 31.6151
rwrist 6.89261
rhand -22.6001 30.7398
rfingers 7.12502
rthumb 3.82924 0.794476
lclavicle 3.51849e-014 -5.62561e-014
lhumerus -18.662 17.1407 90.8212
lradius 17.0418
lwrist -1.66009
lhand -15.5304 23.7144
lfingers 7.12502
lthumb 10.6531 53.4243
rfemur -38.4045 -20.9728 16.6749
rtibia 48.9135
rfoot -13.8711 -2.74221
rtoes -8.50308
lfemur -24.3183 20.4051 -18.3151
ltibia 47.8073
lfoot -20.9516 1.72436
ltoes -21.7453
327
root -33.1275 15.4714 1.01721 -172.44 -37.9304 180.376
lowerback 22.0876 1.90892 -6.73057
upperback 7.69005 0.105046 1.01301
thorax -3.94388 -0.450201 4.94072
lowerneck 2.30147 -6.75573 -16.9499
upperneck -28.6854 -7.56397 31.2943
head -6.46863 -6.36545 15.0815
rclavicle 4.27387e-014 -2.64384e-014
rhumerus -22.124 -10.4954 -86.2631
rradius 31.3508
rwrist 7.24856
rhand -22.7434 30.7704
rfingers 7.12502
rthumb 3.69086 0.822648
lclavicle 4.27387e-014 -2.64384e-014
lhumerus -18.7528 14.9106 90.61
lradius 16.8412
lwrist -0.847671
lhand -15.2708 23.8122
lfingers 7.12502
lthumb 10.9035 53.5091
rfemur -38.028 -20.9556 16.8131
rtibia 48.3833
rfoot -12.8522 -3.95004
rtoes -3.59446
lfemur -23.6802 20.3224 -18.2588
ltibia 47.1996
lfoot -20.8823 1.80713
ltoes -22.0771
328
root -33.1225 15.4826 0.947904 -172.454 -37.9979 180.48
lowerback 21.7947 1.70059 -6.58684
upperback 7.5811 -0.0861139 1.0499
thorax -3.88934 -0.529919 4.94232
lowerneck 2.40561 -6.7598 -16.9879
upperneck -28.7112 -7.59498 31.3068
head -6.48557 -6.38572 15.1052
rclavicle 8.8658e-014 -4.65156e-014
rhumerus -22.346 -10.0534 -86.3555
rradius 31.0467
rwrist 7.81614
rhand -23.0473 31.4498
rfingers 7.12502
rthumb 3.39744 1.49717
lclavicle 8.8658e-014 -4.65156e-014
lhumerus -18.8588 13.3749 90.3274
lradius 16.6207
lwrist -0.35309
lhand -14.6376 23.654
lfingers 7.12502
lthumb 11.5143 53.3178
rfemur -37.7457 -21.0969 17.4004
rtibia 47.834
rfoot -12.8975 -5.29861
rtoes -1.31191
lfemur -23.2565 20.2484 -17.8962
ltibia 46.7313
lfoot -20.7946 1.72954
ltoes -22.0088
329
root -33.1126 15.4944 0.876627 -172.365 -38.1521 180.633
lowerback 21.3479 1.44814 -6.43723
upperback 7.47181 -0.316806 1.10711
thorax -3.75123 -0.629791 4.96762
lowerneck 2.28216 -6.83862 -17.0656
upperneck -28.5907 -7.71577 31.4544
head -6.36973 -6.44808 15.1418
rclavicle 1.47101e-014 -5.36719e-014
rhumerus -22.4957 -9.80746 -86.399
rradius 30.6787
rwrist 8.54104
rhand -23.2962 32.7288
rfingers 7.12502
rthumb 3.15708 2.77241
lclavicle 1.47101e-014 -5.36719e-014
lhumerus -19.0249 12.4291 89.9542
lradius 16.3784
lwrist -0.69318
lhand -14.2675 23.2459
lfingers 7.12502
lthumb 11.8711 52.8894
rfemur -37.3763 -20.8282 17.7441
rtibia 47.2783
rfoot -13.0211 -6.02668
rtoes -2.99553
lfemur -23.037 20.1771 -17.522
ltibia 46.3287
lfoot -20.8936 1.31866
ltoes -19.4263
330
root -33.1022 15.5007 0.806085 -172.135 -38.3101 180.544
lowerback 20.8364 1.25001 -6.3468
upperback 7.46211 -0.503315 1.06194
thorax -3.47819 -0.720821 4.89981
lowerneck 2.1296 -6.93745 -17.0974
upperneck -28.6482 -7.85044 31.6581
head -6.2988 -6.54272 15.2166
rclavicle -7.31528e-014 2.5842e-014
rhumerus -22.4706 -9.82285 -86.4252
rradius 30.3182
rwrist 9.09447
rhand -23.4144 33.9672
rfingers 7.12502
rthumb 3.04291 4.00917
lclavicle -7.31528e-014 2.5842e-014
lhumerus -19.1768 10.8798 89.7447
lradius 16.2867
lwrist -0.920152
lhand -14.2675 22.8379
lfingers 7.12502
lthumb 11.8711 52.4814
rfemur -37.0509 -20.6394 17.9209
rtibia 46.7896
rfoot -13.3532 -6.58927
rtoes -2.70696
lfemur -22.852 20.1619 -17.3851
ltibia 45.9411
lfoot -21.0433 1.13461
ltoes -17.632
331
root -33.0941 15.5104 0.739689 -171.904 -38.3649 180.345
lowerback 20.4342 1.12773 -6.30204
upperback 7.42897 -0.609826 1.02393
thorax -3.29564 -0.769769 4.84867
lowerneck 2.1895 -7.02851 -17.1581
upperneck -28.8632 -7.99042 31.7337
head -6.32785 -6.63354 15.2834
rclavicle 8.56762e-014 -5.56597e-015
rhumerus -22.5104 -9.7132 -86.3262
rradius 30.0316
rwrist 9.22879
rhand -23.5827 34.5959
rfingers 7.12502
rthumb 2.88039 4.63563
lclavicle 8.56762e-014 -5.56597e-015
lhumerus -19.2943 8.9509 89.7388
lradius 16.1369
lwrist -0.710281
lhand -14.3719 22.3984
lfingers 7.12502
lthumb 11.7705 52.0476
rfemur -36.6973 -20.2511 17.8678
rtibia 46.3971
rfoot -13.8061 -7.17293
rtoes -2.83331
lfemur -22.5693 20.066 -17.3437
ltibia 45.5031
lfoot -21.0229 1.39764
ltoes -18.6926
332
root -33.0831 15.5217 0.67429 -171.762 -38.4399 180.01
lowerback 20.3257 1.04678 -6.41121
upperback 7.33146 -0.71337 1.01018
thorax -3.32977 -0.810201 4.91858
lowerneck 2.18015 -7.21375 -17.3345
upperneck -28.8591 -8.2646 31.8486
head -6.22123 -6.7602 15.3306
rclavicle -5.56597e-014 1.78906e-014
rhumerus -22.7694 -9.48923 -86.1787
rradius 29.9098
rwrist 9.21956
rhand -23.9054 34.7377
rfingers 7.12502
rthumb 2.56877 4.77344
lclavicle -5.56597e-014 1.78906e-014
lhumerus -19.4207 7.81299 89.6631
lradius 15.7689
lwrist -1.00359
lhand -14.7313 21.9431
lfingers 7.12502
lthumb 11.4239 51.6118
rfemur -36.188 -19.7149 17.5398
rtibia 46.1264
rfoot -14.1582 -7.80884
rtoes -2.95938
lfemur -22.0851 19.7656 -17.338
ltibia 45.0527
lfoot -20.8377 1.62567
ltoes -19.8036
333
root -33.0623 15.5286 0.610001 -171.52 -38.6614 179.38
lowerback 20.4158 0.941564 -6.89736
upperback 7.22964 -0.941257 1.01254
thorax -3.44408 -0.915186 5.25501
lowerneck 1.91342 -7.4274 -17.4014
upperneck -28.6064 -8.55971 32.0545
head -5.97725 -6.89941 15.3288
rclavicle -5.56597e-015 -1.07344e-014
rhumerus -23.0769 -9.24132 -86.0897
rradius 29.9949
rwrist 9.35362
rhand -24.2566 34.5173
rfingers 7.12502
rthumb 2.22957 4.54917
lclavicle -5.56597e-015 -1.07344e-014
lhumerus -19.595 7.32789 89.5437
lradius 15.4624
lwrist -1.63099
lhand -15.141 21.6142
lfingers 7.12502
lthumb 11.0288 51.3045
rfemur -35.7009 -19.3194 16.987
rtibia 45.9976
rfoot -14.3694 -8.45534
rtoes -2.90322
lfemur -21.5827 19.3634 -17.5423
ltibia 44.592
lfoot -20.301 2.07066
ltoes -23.238
334
root -33.0457 15.5319 0.551096 -171.247 -38.8563 178.899
lowerback 20.3363 0.820095 -7.0449
upperback 7.15667 -1.11586 0.908507
thorax -3.4563 -0.992855 5.26491
lowerneck 1.43126 -7.89579 -17.4255
upperneck -28.3419 -9.17602 32.7562
head -5.54597 -7.26021 15.4628
rclavicle 6.55989e-014 -4.96962e-014
rhumerus -23.3075 -9.28672 -86.1208
rradius 30.1835
rwrist 9.41031
rhand -24.4234 33.5174
rfingers 7.12502
rthumb 2.06842 3.54768
lclavicle 6.55989e-014 -4.96962e-014
lhumerus -19.7743 6.27683 89.4204
lradius 15.3634
lwrist -1.55968
lhand -15.4629 21.3524
lfingers 7.12502
lthumb 10.7182 51.059
rfemur -35.4776 -19.1909 16.6649
rtibia 45.9856
rfoot -14.4731 -8.84936
rtoes -3.82658
lfemur -21.2615 19.0659 -17.6894
ltibia 44.1937
lfoot -19.7368 2.61343
ltoes -27.1571
335
root -33.0404 15.5463 0.492468 -171.129 -38.9049 178.835
lowerback 20.053 0.721163 -6.72842
upperback 7.08178 -1.14976 0.792687
thorax -3.39846 -0.996407 4.95892
lowerneck 1.35672 -8.00307 -16.5292
upperneck -28.3116 -9.31875 31.9975
head -5.6245 -7.3214 14.9272
rclavicle 1.42926e-013 -1.0953e-013
rhumerus -23.5241 -9.65297 -86.106
rradius 30.3388
rwrist 9.17567
rhand -24.3698 32.722
rfingers 7.12502
rthumb 2.1202 2.75277
lclavicle 1.42926e-013 -1.0953e-013
lhumerus -19.9471 5.50389 89.1994
lradius 15.2306
lwrist -1.63528
lhand -15.7988 20.9761
lfingers 7.12502
lthumb 10.3943 50.6992
rfemur -35.3682 -19.0713 16.7051
rtibia 46.0086
rfoot -14.6218 -8.91383
rtoes -3.07324
lfemur -20.9915 18.9089 -17.5567
ltibia 43.8483
lfoot -19.6319 2.8425
ltoes -27.6094
336
root -33.0214 15.55 0.433583 -171.056 -39.0635 178.638
lowerback 20.0747 0.639706 -6.82515
upperback 6.96408 -1.26008 0.832263
thorax -3.51766 -1.03685 5.08436
lowerneck 1.23054 -8.2742 -17.0152
upperneck -28.2618 -9.6965 32.6627
head -5.37055 -7.53181 15.2291
rclavicle 2.44505e-014 -3.10104e-014
rhumerus -23.736 -9.83255 -85.8856
rradius 30.2931
rwrist 8.68109
rhand -24.2751 33.1768
rfingers 7.12502
rthumb 2.21169 3.20849
lclavicle 2.44505e-014 -3.10104e-014
lhumerus -20.2401 5.48556 89.0424
lradius 15.1217
lwrist -1.92084
lhand -16.5596 20.6482
lfingers 7.12502
lthumb 9.66026 50.4067
rfemur -35.2174 -18.8249 16.6426
rtibia 46.0734
rfoot -14.5782 -9.53122
rtoes -3.66226
lfemur -20.7054 18.5948 -17.4669
ltibia 43.5767
lfoot -19.6164 3.03227
ltoes -27.3419
